<svg xmlns="http://www.w3.org/2000/svg" viewBox="0 0 32 32"><rect width="32" height="32" rx="7" fill="#0B0D10"/><path d="M16 6c-4.4 0-8 3.1-8 7.2 0 2.3 1.1 4.3 2.9 5.6-.2 1.3-.8 2.4-1.7 3.3 1.7.2 3.3-.3 4.6-1.2 .7.2 1.4.3 2.2.3 4.4 0 8-3.1 8-7.2S20.4 6 16 6z" fill="none" stroke="#2DD4BF" stroke-width="2" stroke-linejoin="round"/><circle cx="13" cy="13" r="1.4" fill="#2DD4BF"/><circle cx="19" cy="13" r="1.4" fill="#2DD4BF"/><path d="M13 16.5c1 .9 2 1.3 3 1.3s2-.4 3-1.3" stroke="#2DD4BF" stroke-width="1.6" fill="none" stroke-linecap="round"/></svg>
